<svg xmlns="http://www.w3.org/2000/svg" xmlns:xlink="http://www.w3.org/1999/xlink" width="500" zoomAndPan="magnify" viewBox="0 0 375 374.999991" height="500" preserveAspectRatio="xMidYMid meet" version="1.0"><path fill="#ddd78d" d="M 209.171875 84.125 C 212.632812 83.9375 217.394531 84.226562 220.859375 84.445312 C 238.828125 85.585938 258.40625 91.085938 274.015625 100.175781 C 289.945312 109.449219 302.253906 123.148438 306.855469 141.292969 C 309.308594 150.964844 308.914062 163.871094 306.160156 173.4375 C 304.628906 178.574219 302.484375 183.511719 299.773438 188.136719 C 290.503906 204.050781 272.070312 221.980469 256.34375 231.660156 C 247.804688 236.929688 238.554688 240.945312 228.875 243.582031 C 222.65625 245.210938 213.9375 247.128906 207.667969 245.359375 C 205.878906 244.851562 203.96875 243.742188 202.359375 242.800781 C 202.363281 246.914062 202.5 251.027344 202.496094 255.160156 C 202.582031 260.25 202.222656 265.378906 202.988281 270.445312 C 203.691406 275.105469 205.621094 281.976562 207.355469 286.210938 C 208.515625 289.050781 214.34375 290.632812 216.96875 291.015625 C 218.28125 291.207031 219.792969 291.613281 221.226562 292.023438 L 221.21875 297.8125 L 173.464844 297.871094 C 168.324219 297.886719 163.183594 297.851562 158.046875 297.773438 C 155.882812 297.730469 151.023438 297.679688 149.089844 297.144531 C 149.085938 296.519531 149.101562 295.59375 149.066406 295.007812 C 148.769531 290.449219 149.34375 291.214844 153.398438 291.039062 C 157.585938 290.871094 163.089844 289.527344 165.101562 285.410156 C 169.222656 276.976562 168.738281 266.710938 168.75 257.570312 L 168.800781 235.632812 C 168.875 207.722656 168.621094 179.507812 169.035156 151.625 C 169.136719 145.351562 169.277344 139.078125 169.460938 132.804688 C 169.546875 129.53125 169.523438 123.800781 170.203125 120.820312 C 174.515625 120.417969 180.792969 120.460938 185.21875 120.390625 L 208.5625 120.332031 C 214.429688 120.332031 220.0625 120.171875 225.90625 120.695312 L 226.277344 122.183594 C 224.078125 123.160156 221.742188 123.59375 219.460938 124.34375 C 213.875 126.046875 204.125 130.851562 203.449219 137.640625 C 202.316406 149.03125 202.648438 161.285156 202.605469 172.78125 L 202.351562 239.148438 C 212.84375 237.789062 218.476562 234.574219 226.976562 228.703125 C 237.164062 221.664062 247.105469 214.109375 255.378906 204.917969 C 267.914062 190.980469 275.683594 174.652344 274.085938 155.613281 C 272.339844 129.105469 253.050781 114.289062 229.578125 106.339844 C 203.367188 97.464844 177.304688 98.945312 150.640625 105.078125 C 143.601562 106.695312 137.019531 108.238281 130.101562 110.390625 C 124.394531 112.21875 118.742188 114.207031 113.148438 116.351562 C 111.460938 116.988281 103.148438 120.542969 102.371094 120.59375 L 102.234375 120.320312 C 102.265625 119.207031 104.699219 118.085938 105.632812 117.511719 C 109.078125 115.375 112.582031 113.335938 116.140625 111.394531 C 122.75 107.742188 129.550781 104.753906 136.34375 101.46875 C 137.109375 101.097656 137.921875 100.753906 138.707031 100.414062 C 160.960938 90.601562 184.867188 85.074219 209.171875 84.125 Z M 209.171875 84.125 " fill-opacity="1" fill-rule="nonzero"/><path fill="#ddd78d" d="M 157.746094 126.175781 C 158.191406 126.144531 158.238281 126.113281 158.667969 126.257812 L 158.800781 126.546875 C 158.605469 127.121094 157.890625 127.621094 157.359375 127.875 C 148.589844 132.054688 140.167969 136.691406 132.117188 142.132812 C 127.695312 145.125 124.273438 148.210938 120.332031 151.652344 C 112.84375 158.191406 106.273438 165.289062 102.082031 174.421875 C 96.441406 186.296875 94.832031 202.003906 99.304688 214.476562 C 105.359375 231.359375 123.867188 242.375 140.515625 246.6875 C 142.960938 247.328125 145.433594 247.863281 147.925781 248.292969 C 150.730469 248.800781 154.164062 249.203125 156.6875 250.386719 L 156.742188 260.710938 C 156.746094 261.550781 156.988281 266.546875 156.359375 266.859375 C 155.574219 267.257812 153.09375 267.125 152.054688 267.128906 C 144.097656 267.144531 135.964844 266.527344 128.15625 264.972656 C 96.398438 258.636719 64.992188 237.886719 64.441406 202.679688 C 64.152344 184.230469 72.847656 167.910156 85.730469 155.085938 C 98.308594 142.566406 116.632812 134.179688 133.523438 129.332031 C 141.105469 127.1875 149.917969 126.34375 157.746094 126.175781 Z M 157.746094 126.175781 " fill-opacity="1" fill-rule="nonzero"/></svg>
